<?xml version="1.0"?>
<!-- Generated by SVGo and Plotinum VG -->
<svg width="800pt" height="400pt" viewBox="0 0 800 400"
	xmlns="http://www.w3.org/2000/svg"
	xmlns:xlink="http://www.w3.org/1999/xlink">
<g transform="scale(1, -1) translate(0, -400)">
<path d="M0,0L800,0L800,400L0,400Z" style="fill:#FFFFFF" />
<text x="345.46" y="-383.45" transform="scale(1, -1)"
	style="font-family:Times;font-weight:normal;font-style:normal;font-size:12px">Average Latency Time</text>
<text x="89.166" y="-28.74" transform="scale(1, -1)"
	style="font-family:Times;font-weight:normal;font-style:normal;font-size:10px">seq-write</text>
<text x="307.41" y="-28.74" transform="scale(1, -1)"
	style="font-family:Times;font-weight:normal;font-style:normal;font-size:10px">seq-read</text>
<text x="520.1" y="-28.74" transform="scale(1, -1)"
	style="font-family:Times;font-weight:normal;font-style:normal;font-size:10px">rand-write</text>
<text x="738.35" y="-28.74" transform="scale(1, -1)"
	style="font-family:Times;font-weight:normal;font-style:normal;font-size:10px">rand-read</text>
<g transform="rotate(90)">
<text x="181.32" y="16.555" transform="scale(1, -1)"
	style="font-family:Times;font-weight:normal;font-style:normal;font-size:12px">Latency (us)</text>
</g>
<text x="35.416" y="-38.647" transform="scale(1, -1)"
	style="font-family:Times;font-weight:normal;font-style:normal;font-size:10px">0</text>
<text x="25.416" y="-193.5" transform="scale(1, -1)"
	style="font-family:Times;font-weight:normal;font-style:normal;font-size:10px">800</text>
<text x="20.416" y="-348.35" transform="scale(1, -1)"
	style="font-family:Times;font-weight:normal;font-style:normal;font-size:10px">1600</text>
<path d="M42.916,43.369L50.916,43.369" style="fill:none;stroke:#000000;stroke-width:0.5" />
<path d="M42.916,198.22L50.916,198.22" style="fill:none;stroke:#000000;stroke-width:0.5" />
<path d="M42.916,353.07L50.916,353.07" style="fill:none;stroke:#000000;stroke-width:0.5" />
<path d="M46.916,120.8L50.916,120.8" style="fill:none;stroke:#000000;stroke-width:0.5" />
<path d="M46.916,275.65L50.916,275.65" style="fill:none;stroke:#000000;stroke-width:0.5" />
<path d="M50.916,43.369L50.916,379.58" style="fill:none;stroke:#000000;stroke-width:0.5" />
<path d="M70.27,43.369L70.27,48.641L95.27,48.641L95.27,43.369Z" style="fill:#0057E7" />
<path d="M286.85,43.369L286.85,47.973L311.85,47.973L311.85,43.369Z" style="fill:#0057E7" />
<path d="M503.42,43.369L503.42,48.617L528.42,48.617L528.42,43.369Z" style="fill:#0057E7" />
<path d="M720,43.369L720,47.981L745,47.981L745,43.369Z" style="fill:#0057E7" />
<path d="M95.27,43.369L95.27,109.38L120.27,109.38L120.27,43.369Z" style="fill:#D62D20" />
<path d="M311.85,43.369L311.85,94.395L336.85,94.395L336.85,43.369Z" style="fill:#D62D20" />
<path d="M528.42,43.369L528.42,109.12L553.42,109.12L553.42,43.369Z" style="fill:#D62D20" />
<path d="M745,43.369L745,94.482L770,94.482L770,43.369Z" style="fill:#D62D20" />
<path d="M120.27,43.369L120.27,379.58L145.27,379.58L145.27,43.369Z" style="fill:#FFA700" />
<path d="M336.85,43.369L336.85,301.26L361.85,301.26L361.85,43.369Z" style="fill:#FFA700" />
<path d="M553.42,43.369L553.42,379.38L578.42,379.38L578.42,43.369Z" style="fill:#FFA700" />
<path d="M770,43.369L770,299.35L795,299.35L795,43.369Z" style="fill:#FFA700" />
<path d="M107.77,43.369L757.5,43.369" style="fill:none;stroke:#495057;stroke-width:0.25" />
<path d="M107.77,198.22L757.5,198.22" style="fill:none;stroke:#495057;stroke-width:0.25" />
<path d="M107.77,353.07L757.5,353.07" style="fill:none;stroke:#495057;stroke-width:0.25" />
<path d="M215.53,10.889L215.53,19.722L235.53,19.722L235.53,10.889Z" style="fill:#0057E7" />
<text x="238.53" y="-11.111" transform="scale(1, -1)"
	style="font-family:Times;font-weight:normal;font-style:normal;font-size:12px">redis/client-num:1</text>
<path d="M338.51,10.889L338.51,19.722L358.51,19.722L358.51,10.889Z" style="fill:#D62D20" />
<text x="361.51" y="-11.111" transform="scale(1, -1)"
	style="font-family:Times;font-weight:normal;font-style:normal;font-size:12px">redis/client-num:10</text>
<path d="M467.49,10.889L467.49,19.722L487.49,19.722L487.49,10.889Z" style="fill:#FFA700" />
<text x="490.49" y="-11.111" transform="scale(1, -1)"
	style="font-family:Times;font-weight:normal;font-style:normal;font-size:12px">redis/client-num:50</text>
</g>
</svg>
