<?xml version="1.0"?>
<!-- Generated by SVGo and Plotinum VG -->
<svg width="800pt" height="400pt" viewBox="0 0 800 400"
	xmlns="http://www.w3.org/2000/svg"
	xmlns:xlink="http://www.w3.org/1999/xlink">
<g transform="scale(1, -1) translate(0, -400)">
<path d="M0,0L800,0L800,400L0,400Z" style="fill:#FFFFFF" />
<text x="297.59" y="-383.45" transform="scale(1, -1)"
	style="font-family:Times;font-weight:normal;font-style:normal;font-size:12px">Average Throughput (Queries Per Second)</text>
<text x="94.166" y="-28.74" transform="scale(1, -1)"
	style="font-family:Times;font-weight:normal;font-style:normal;font-size:10px">seq-write</text>
<text x="310.75" y="-28.74" transform="scale(1, -1)"
	style="font-family:Times;font-weight:normal;font-style:normal;font-size:10px">seq-read</text>
<text x="521.77" y="-28.74" transform="scale(1, -1)"
	style="font-family:Times;font-weight:normal;font-style:normal;font-size:10px">rand-write</text>
<text x="738.35" y="-28.74" transform="scale(1, -1)"
	style="font-family:Times;font-weight:normal;font-style:normal;font-size:10px">rand-read</text>
<g transform="rotate(90)">
<text x="166.64" y="16.555" transform="scale(1, -1)"
	style="font-family:Times;font-weight:normal;font-style:normal;font-size:12px">Throughput (QPS)</text>
</g>
<text x="40.416" y="-38.647" transform="scale(1, -1)"
	style="font-family:Times;font-weight:normal;font-style:normal;font-size:10px">0</text>
<text x="20.416" y="-127.22" transform="scale(1, -1)"
	style="font-family:Times;font-weight:normal;font-style:normal;font-size:10px">10000</text>
<text x="20.416" y="-215.79" transform="scale(1, -1)"
	style="font-family:Times;font-weight:normal;font-style:normal;font-size:10px">20000</text>
<text x="20.416" y="-304.37" transform="scale(1, -1)"
	style="font-family:Times;font-weight:normal;font-style:normal;font-size:10px">30000</text>
<path d="M47.916,43.369L55.916,43.369" style="fill:none;stroke:#000000;stroke-width:0.5" />
<path d="M47.916,131.94L55.916,131.94" style="fill:none;stroke:#000000;stroke-width:0.5" />
<path d="M47.916,220.52L55.916,220.52" style="fill:none;stroke:#000000;stroke-width:0.5" />
<path d="M47.916,309.09L55.916,309.09" style="fill:none;stroke:#000000;stroke-width:0.5" />
<path d="M51.916,61.084L55.916,61.084" style="fill:none;stroke:#000000;stroke-width:0.5" />
<path d="M51.916,78.798L55.916,78.798" style="fill:none;stroke:#000000;stroke-width:0.5" />
<path d="M51.916,96.513L55.916,96.513" style="fill:none;stroke:#000000;stroke-width:0.5" />
<path d="M51.916,114.23L55.916,114.23" style="fill:none;stroke:#000000;stroke-width:0.5" />
<path d="M51.916,149.66L55.916,149.66" style="fill:none;stroke:#000000;stroke-width:0.5" />
<path d="M51.916,167.37L55.916,167.37" style="fill:none;stroke:#000000;stroke-width:0.5" />
<path d="M51.916,185.09L55.916,185.09" style="fill:none;stroke:#000000;stroke-width:0.5" />
<path d="M51.916,202.8L55.916,202.8" style="fill:none;stroke:#000000;stroke-width:0.5" />
<path d="M51.916,238.23L55.916,238.23" style="fill:none;stroke:#000000;stroke-width:0.5" />
<path d="M51.916,255.94L55.916,255.94" style="fill:none;stroke:#000000;stroke-width:0.5" />
<path d="M51.916,273.66L55.916,273.66" style="fill:none;stroke:#000000;stroke-width:0.5" />
<path d="M51.916,291.37L55.916,291.37" style="fill:none;stroke:#000000;stroke-width:0.5" />
<path d="M51.916,326.8L55.916,326.8" style="fill:none;stroke:#000000;stroke-width:0.5" />
<path d="M51.916,344.52L55.916,344.52" style="fill:none;stroke:#000000;stroke-width:0.5" />
<path d="M51.916,362.23L55.916,362.23" style="fill:none;stroke:#000000;stroke-width:0.5" />
<path d="M55.916,43.369L55.916,379.58" style="fill:none;stroke:#000000;stroke-width:0.5" />
<path d="M75.27,43.369L75.27,312.05L100.27,312.05L100.27,43.369Z" style="fill:#0057E7" />
<path d="M290.18,43.369L290.18,379.58L315.18,379.58L315.18,43.369Z" style="fill:#0057E7" />
<path d="M505.09,43.369L505.09,313.38L530.09,313.38L530.09,43.369Z" style="fill:#0057E7" />
<path d="M720,43.369L720,379.15L745,379.15L745,43.369Z" style="fill:#0057E7" />
<path d="M100.27,43.369L100.27,297L125.27,297L125.27,43.369Z" style="fill:#D62D20" />
<path d="M315.18,43.369L315.18,377.96L340.18,377.96L340.18,43.369Z" style="fill:#D62D20" />
<path d="M530.09,43.369L530.09,297.99L555.09,297.99L555.09,43.369Z" style="fill:#D62D20" />
<path d="M745,43.369L745,377.42L770,377.42L770,43.369Z" style="fill:#D62D20" />
<path d="M125.27,43.369L125.27,297.12L150.27,297.12L150.27,43.369Z" style="fill:#FFA700" />
<path d="M340.18,43.369L340.18,375.48L365.18,375.48L365.18,43.369Z" style="fill:#FFA700" />
<path d="M555.09,43.369L555.09,297.26L580.09,297.26L580.09,43.369Z" style="fill:#FFA700" />
<path d="M770,43.369L770,377.95L795,377.95L795,43.369Z" style="fill:#FFA700" />
<path d="M112.77,43.369L757.5,43.369" style="fill:none;stroke:#495057;stroke-width:0.25" />
<path d="M112.77,131.94L757.5,131.94" style="fill:none;stroke:#495057;stroke-width:0.25" />
<path d="M112.77,220.52L757.5,220.52" style="fill:none;stroke:#495057;stroke-width:0.25" />
<path d="M112.77,309.09L757.5,309.09" style="fill:none;stroke:#495057;stroke-width:0.25" />
<path d="M215.53,10.889L215.53,19.722L235.53,19.722L235.53,10.889Z" style="fill:#0057E7" />
<text x="238.53" y="-11.111" transform="scale(1, -1)"
	style="font-family:Times;font-weight:normal;font-style:normal;font-size:12px">redis/client-num:1</text>
<path d="M338.51,10.889L338.51,19.722L358.51,19.722L358.51,10.889Z" style="fill:#D62D20" />
<text x="361.51" y="-11.111" transform="scale(1, -1)"
	style="font-family:Times;font-weight:normal;font-style:normal;font-size:12px">redis/client-num:10</text>
<path d="M467.49,10.889L467.49,19.722L487.49,19.722L487.49,10.889Z" style="fill:#FFA700" />
<text x="490.49" y="-11.111" transform="scale(1, -1)"
	style="font-family:Times;font-weight:normal;font-style:normal;font-size:12px">redis/client-num:50</text>
</g>
</svg>
